<svg width="216" height="204" viewBox="0 0 216 204" fill="none" xmlns="http://www.w3.org/2000/svg">
<path fill-rule="evenodd" clip-rule="evenodd" d="M48 204H168V126H48V204Z" fill="black"/>
<path fill-rule="evenodd" clip-rule="evenodd" d="M171 76.1382C171 47.3442 142.794 23.9982 108 23.9982C73.206 23.9982 45 47.3442 45 76.1382V153.568C45 157.582 68.748 177.25 78 186.988C80.826 189.958 84.864 191.998 89.382 191.998H95.202C98.922 191.998 102.486 190.732 105.108 188.482L108 185.998L110.892 188.482C113.514 190.732 117.078 191.998 120.798 191.998H126.582C131.124 191.998 135.12 189.892 138 186.946C147 177.748 171 157.606 171 153.568V76.1382Z" fill="white"/>
<path fill-rule="evenodd" clip-rule="evenodd" d="M81 88.5C73.536 88.5 67.5 94.536 67.5 102C67.5 109.464 73.536 115.5 81 115.5C88.464 115.5 94.5 109.464 94.5 102C94.5 94.536 88.464 88.5 81 88.5ZM81 97.5C83.484 97.5 85.5 99.516 85.5 102C85.5 104.484 83.484 106.5 81 106.5C78.516 106.5 76.5 104.484 76.5 102C76.5 99.516 78.516 97.5 81 97.5Z" fill="#F1C40F"/>
<path fill-rule="evenodd" clip-rule="evenodd" d="M135 88.5C127.536 88.5 121.5 94.536 121.5 102C121.5 109.464 127.536 115.5 135 115.5C142.464 115.5 148.5 109.464 148.5 102C148.5 94.536 142.464 88.5 135 88.5ZM135 97.5C137.484 97.5 139.5 99.516 139.5 102C139.5 104.484 137.484 106.5 135 106.5C132.516 106.5 130.5 104.484 130.5 102C130.5 99.516 132.516 97.5 135 97.5Z" fill="#F1C40F"/>
<path fill-rule="evenodd" clip-rule="evenodd" d="M147.132 99H128.868C118.998 99 111 91.002 111 81.132V45H147.132C157.002 45 165 52.998 165 62.868V81.132C165 91.002 157.002 99 147.132 99Z" fill="#ECECEC"/>
<path fill-rule="evenodd" clip-rule="evenodd" d="M87.1325 99H68.8685C58.9985 99 51.0005 91.002 51.0005 81.132V62.868C51.0005 52.998 58.9985 45 68.8685 45H105V81.132C105 91.002 97.0025 99 87.1325 99Z" fill="#ECECEC"/>
<path fill-rule="evenodd" clip-rule="evenodd" d="M75.3869 132C63.4169 132 52.5629 127.068 46.3649 118.8C45.3749 117.474 45.6449 115.596 46.9709 114.6C48.2849 113.61 50.1689 113.874 51.1709 115.2C56.1629 121.86 65.4449 126 75.3869 126C85.3229 126 94.6049 121.86 99.5969 115.2C100.599 113.874 102.483 113.616 103.797 114.6C105.123 115.596 105.393 117.474 104.403 118.8C98.2049 127.068 87.3569 132 75.3869 132Z" fill="#ECECEC"/>
<path fill-rule="evenodd" clip-rule="evenodd" d="M74.1799 144C62.2099 144 51.3559 139.068 45.1579 130.8C44.1679 129.474 44.4379 127.596 45.7639 126.6C47.0779 125.616 48.9619 125.868 49.9639 127.2C54.9559 133.86 64.2379 138 74.1799 138C81.1879 138 87.8899 135.984 93.0559 132.324C94.3999 131.376 96.2779 131.682 97.2439 133.038C98.1979 134.394 97.8799 136.266 96.5299 137.226C90.3499 141.594 82.4179 144 74.1799 144Z" fill="#ECECEC"/>
<path fill-rule="evenodd" clip-rule="evenodd" d="M140.613 132C128.643 132 117.795 127.068 111.597 118.8C110.607 117.474 110.877 115.596 112.203 114.6C113.523 113.61 115.407 113.874 116.403 115.2C121.395 121.86 130.677 126 140.613 126C150.555 126 159.837 121.86 164.829 115.2C165.837 113.874 167.721 113.616 169.029 114.6C170.355 115.596 170.625 117.474 169.635 118.8C163.437 127.068 152.583 132 140.613 132Z" fill="#ECECEC"/>
<path fill-rule="evenodd" clip-rule="evenodd" d="M141.82 144C133.582 144 125.65 141.594 119.47 137.226C118.12 136.266 117.802 134.394 118.756 133.038C119.722 131.688 121.6 131.382 122.944 132.324C128.11 135.984 134.812 138 141.82 138C151.762 138 161.044 133.86 166.036 127.2C167.038 125.874 168.928 125.616 170.236 126.6C171.562 127.596 171.832 129.474 170.842 130.8C164.644 139.068 153.79 144 141.82 144Z" fill="#ECECEC"/>
<path fill-rule="evenodd" clip-rule="evenodd" d="M6.4537 204H68.9737C48.3937 173.922 49.4617 120.222 49.4617 119.61C49.4617 86.58 75.6697 59.802 107.998 59.802C140.332 59.802 166.54 86.58 166.54 119.61C166.54 120.222 167.602 173.922 147.028 204H209.548C215.092 204 217.954 197.274 214.498 192.702C183.262 151.398 186.052 82.308 186.052 82.308C186.052 38.544 149.5 0 107.998 0C66.5017 0 29.9437 38.544 29.9437 82.308C29.9437 82.308 32.7337 151.398 1.5037 192.702C-1.9523 197.274 0.909697 204 6.4537 204Z" fill="#323232"/>
</svg>
