<svg width="133" height="144" viewBox="0 0 133 144" fill="none" xmlns="http://www.w3.org/2000/svg">
<path fill-rule="evenodd" clip-rule="evenodd" d="M120.01 96.8262H132.424L115.872 62.8706V59.0967C115.872 34.09 93.6405 17.9067 66.2126 17.9067C38.7847 17.9067 16.5528 34.09 16.5528 59.0967V62.8706L0.000976562 96.8262H12.4148L0.000976562 111.917H16.5528H115.872H132.424L120.01 96.8262Z" fill="#BE9664"/>
<path fill-rule="evenodd" clip-rule="evenodd" d="M111.044 89.535C106.112 89.535 102.078 85.506 102.078 80.5817V67.1516C102.078 62.2273 106.112 58.1982 111.044 58.1982C115.975 58.1982 120.01 62.2273 120.01 67.1516V80.5817C120.01 85.506 115.975 89.535 111.044 89.535Z" fill="#F0B496"/>
<path fill-rule="evenodd" clip-rule="evenodd" d="M21.3811 89.535C16.4496 89.535 12.4148 85.506 12.4148 80.5817V67.1516C12.4148 62.2273 16.4496 58.1982 21.3811 58.1982C26.3125 58.1982 30.3474 62.2273 30.3474 67.1516V80.5817C30.3474 85.506 26.3125 89.535 21.3811 89.535Z" fill="#F0B496"/>
<path fill-rule="evenodd" clip-rule="evenodd" d="M66.2126 13.4314C41.4521 13.4314 21.3811 31.4724 21.3811 53.7215V62.6749V106.546C21.3811 112.389 24.2369 117.863 29.0294 121.217L30.3474 122.139L55.9282 140.019C62.1015 144.334 70.3236 144.334 76.4969 140.019L102.078 122.139L103.396 121.217C108.188 117.863 111.044 112.389 111.044 106.546V76.105V53.7215C111.044 31.4724 90.973 13.4314 66.2126 13.4314Z" fill="#F0B496"/>
<path fill-rule="evenodd" clip-rule="evenodd" d="M48.28 76.105C45.8008 76.105 43.7969 78.1061 43.7969 80.5817C43.7969 83.0573 45.8008 85.0583 48.28 85.0583C50.7592 85.0583 52.7632 83.0573 52.7632 80.5817C52.7632 78.1061 50.7592 76.105 48.28 76.105Z" fill="#2980B9"/>
<path fill-rule="evenodd" clip-rule="evenodd" d="M84.1453 76.105C81.6661 76.105 79.6621 78.1061 79.6621 80.5817C79.6621 83.0573 81.6661 85.0583 84.1453 85.0583C86.6244 85.0583 88.6284 83.0573 88.6284 80.5817C88.6284 78.1061 86.6244 76.105 84.1453 76.105Z" fill="#2980B9"/>
<path fill-rule="evenodd" clip-rule="evenodd" d="M61.7295 100.573V78.342C61.7295 77.1064 62.7337 76.1036 63.9711 76.1036C65.2084 76.1036 66.2126 77.1064 66.2126 78.342V100.573C66.2126 101.809 65.2084 102.812 63.9711 102.812C62.7337 102.812 61.7295 101.809 61.7295 100.573Z" fill="#E99977"/>
<path fill-rule="evenodd" clip-rule="evenodd" d="M112.325 66.3848H128.975L115.526 39.5246H124.492L113.706 27.2317L107.411 15.3595L78.9793 0L66.2113 6.75084L53.4478 0L25.0157 15.3595L18.7213 27.2317L7.93041 39.5246H16.8967L3.44727 66.3848H20.1022L21.3799 75.3381L26.8986 61.5634L44.1273 55.8556L56.7115 32.1202L45.9923 61.9081L64.1715 56.3212L70.6945 34.4436L70.5734 32.1515L70.6945 32.1202L88.2998 55.8556L105.528 61.5634L111.043 75.3381L112.325 66.3848Z" fill="#BE9664"/>
<path fill-rule="evenodd" clip-rule="evenodd" d="M68.4541 136.54C68.4541 137.776 67.4499 138.779 66.2125 138.779C64.9752 138.779 63.9709 137.776 63.9709 136.54C63.9709 135.305 64.9752 134.302 66.2125 134.302C67.4499 134.302 68.4541 135.305 68.4541 136.54Z" fill="#F0B496"/>
</svg>
