<svg width="125" height="130" viewBox="0 0 125 130" fill="none" xmlns="http://www.w3.org/2000/svg">
<path fill-rule="evenodd" clip-rule="evenodd" d="M62.4999 26.7428C40.3079 26.7428 22.3213 26.8409 22.3213 48.9929V92.5748C22.8838 99.8756 25.9061 106.441 31.1695 110.328L51.9865 125.696C58.4195 130.443 66.5802 130.443 73.0133 125.696L93.8302 110.328C99.0936 106.441 102.116 99.8756 102.678 92.5748V48.9929C102.678 26.8409 84.6918 26.7428 62.4999 26.7428Z" fill="#F0B496"/>
<path fill-rule="evenodd" clip-rule="evenodd" d="M80.3571 71.3143C77.8884 71.3143 75.8928 73.3067 75.8928 75.7715C75.8928 78.2363 77.8884 80.2286 80.3571 80.2286C82.8259 80.2286 84.8214 78.2363 84.8214 75.7715C84.8214 73.3067 82.8259 71.3143 80.3571 71.3143Z" fill="#323232"/>
<path fill-rule="evenodd" clip-rule="evenodd" d="M44.643 71.3143C42.1742 71.3143 40.1787 73.3067 40.1787 75.7715C40.1787 78.2363 42.1742 80.2286 44.643 80.2286C47.1117 80.2286 49.1073 78.2363 49.1073 75.7715C49.1073 73.3067 47.1117 71.3143 44.643 71.3143Z" fill="#323232"/>
<path fill-rule="evenodd" clip-rule="evenodd" d="M58.0356 91.3714V82.4571C58.0356 81.2269 59.0356 80.2285 60.2678 80.2285C61.4999 80.2285 62.4999 81.2269 62.4999 82.4571V91.3714C62.4999 92.6016 61.4999 93.6 60.2678 93.6C59.0356 93.6 58.0356 92.6016 58.0356 91.3714Z" fill="#E99977"/>
<path fill-rule="evenodd" clip-rule="evenodd" d="M22.3215 53.4857L31.25 57.9429L62.5 40.1143L93.75 57.9429L102.679 53.4501L107.513 40.1143L75.8929 8.91431L40.1786 13.3714L17.8572 40.1143L22.3215 53.4857Z" fill="#503C1D"/>
<path fill-rule="evenodd" clip-rule="evenodd" d="M11.1607 93.6C4.99554 93.6 0 88.6124 0 82.4571V46.8C0 40.6446 4.99554 35.6571 11.1607 35.6571C17.3259 35.6571 22.3214 40.6446 22.3214 46.8V82.4571C22.3214 88.6124 17.3259 93.6 11.1607 93.6Z" fill="#503C1D"/>
<path fill-rule="evenodd" clip-rule="evenodd" d="M113.839 93.6C107.674 93.6 102.679 88.6124 102.679 82.4571V46.8C102.679 40.6446 107.674 35.6571 113.839 35.6571C120.005 35.6571 125 40.6446 125 46.8V82.4571C125 88.6124 120.005 93.6 113.839 93.6Z" fill="#503C1D"/>
<path fill-rule="evenodd" clip-rule="evenodd" d="M62.5 0C37.8438 0 17.8572 19.9546 17.8572 44.5714L62.5 35.6571L107.143 44.5714C107.143 19.9546 87.1563 0 62.5 0Z" fill="#503C1D"/>
</svg>
