<svg width="223" height="98" viewBox="0 0 223 98" fill="none" xmlns="http://www.w3.org/2000/svg">
<g clip-path="url(#clip0_54_86)">
<path fill-rule="evenodd" clip-rule="evenodd" d="M26.76 26.3918C3.92926 18.8235 0 28.8685 0 28.8685C11.4176 28.8685 22.8352 43.4483 22.8352 43.4483C38.0572 62.3623 49.4703 62.3623 49.4703 62.3623C52.8733 62.3623 55.8749 61.6495 58.4929 60.7052C57.0657 56.3308 62.44 51.6669 62.44 46.7936C62.44 41.1185 73.7283 40.3123 75.82 34.3877C60.6248 36.3566 26.76 26.3918 26.76 26.3918Z" fill="#46A046"/>
<path fill-rule="evenodd" clip-rule="evenodd" d="M62.44 49C63.7334 47.2226 66.115 41.2357 66.115 39.3603C66.115 35.3423 78.0678 31.0615 80.28 26.8653C57.2575 28.4512 28.205 23.5957 28.205 23.5957C0.370181 17.6311 0 28.8699 0 28.8699C13.1927 25.6136 27.0187 32.9859 27.0187 32.9859C53.9125 47.2003 60.9727 49.1291 62.44 49Z" fill="#8CBE3C"/>
<path fill-rule="evenodd" clip-rule="evenodd" d="M147.18 34.3855C149.272 40.3145 160.56 41.1208 160.56 46.7959C160.56 51.6647 165.934 56.3331 164.507 60.703C167.125 61.6518 170.127 62.3645 173.53 62.3645C173.53 62.3645 184.943 62.3645 200.165 43.4461C200.165 43.4461 211.582 28.8708 223 28.8708C223 28.8708 219.071 18.8258 196.24 26.3896C196.24 26.3896 162.375 36.3589 147.18 34.3855Z" fill="#46A046"/>
<path fill-rule="evenodd" clip-rule="evenodd" d="M160.56 49C159.267 47.2226 156.885 41.2357 156.885 39.3603C156.885 35.3423 144.932 31.0615 142.72 26.8653C165.742 28.4512 194.795 23.5957 194.795 23.5957C222.63 17.6311 223 28.8699 223 28.8699C209.807 25.6136 195.981 32.9859 195.981 32.9859C169.087 47.2003 162.027 49.1291 160.56 49Z" fill="#8CBE3C"/>
<path fill-rule="evenodd" clip-rule="evenodd" d="M111.5 0C80.5475 0 63.8894 38.6165 57.2841 55.664C55.9372 59.143 55.6562 62.9249 56.3788 66.4796C57.1548 70.3239 59.4829 73.598 62.5469 75.7273L98.1199 98H124.88L160.555 75.656C163.138 73.8653 165.27 71.2816 166.211 68.1323C167.406 64.1143 167.272 59.6865 165.716 55.664C159.11 38.6165 142.452 0 111.5 0Z" fill="#8CBE3C"/>
<path fill-rule="evenodd" clip-rule="evenodd" d="M115.96 62.3637H107.04C105.809 62.3637 104.81 61.3658 104.81 60.1364C104.81 58.9069 105.809 57.9091 107.04 57.9091H115.96C117.191 57.9091 118.19 58.9069 118.19 60.1364C118.19 61.3658 117.191 62.3637 115.96 62.3637Z" fill="#46A046"/>
<path opacity="0.5" fill-rule="evenodd" clip-rule="evenodd" d="M109.27 0.173239V13.3631C109.27 14.5926 110.269 15.5904 111.5 15.5904C112.731 15.5904 113.73 14.5926 113.73 13.3631V0.173239C112.985 0.128694 112.263 -0.000488281 111.5 -0.000488281C110.737 -0.000488281 110.015 0.128694 109.27 0.173239ZM93.6599 17.8177C93.6599 19.0471 94.659 20.045 95.8899 20.045C97.1209 20.045 98.1199 19.0471 98.1199 17.8177V2.66333C96.5901 3.26915 95.1005 3.9596 93.6599 4.74806V17.8177ZM124.88 2.66333V17.8177C124.88 19.0471 125.879 20.045 127.11 20.045C128.341 20.045 129.34 19.0471 129.34 17.8177V4.74806C127.899 3.9596 126.41 3.26915 124.88 2.66333Z" fill="#46A046"/>
<path opacity="0.5" fill-rule="evenodd" clip-rule="evenodd" d="M147.18 50.1136C146.565 50.1136 146.065 49.6147 146.065 49C146.065 39.788 138.559 32.2954 129.34 32.2954C120.121 32.2954 112.615 39.788 112.615 49H110.385C110.385 39.788 102.879 32.2954 93.6601 32.2954C84.4413 32.2954 76.9351 39.788 76.9351 49C76.9351 49.6147 76.4356 50.1136 75.8201 50.1136C75.2046 50.1136 74.7051 49.6147 74.7051 49C74.7051 38.563 83.2058 30.0682 93.6601 30.0682C101.866 30.0682 108.864 35.2978 111.5 42.5988C114.136 35.2978 121.134 30.0682 129.34 30.0682C139.794 30.0682 148.295 38.563 148.295 49C148.295 49.6147 147.796 50.1136 147.18 50.1136Z" fill="#46A046"/>
<path fill-rule="evenodd" clip-rule="evenodd" d="M98.1199 53.4545C98.1199 55.9135 96.1219 57.9091 93.66 57.9091C91.198 57.9091 89.2 55.9135 89.2 53.4545C89.2 50.9956 91.198 49 93.66 49C96.1219 49 98.1199 50.9956 98.1199 53.4545Z" fill="white"/>
<path fill-rule="evenodd" clip-rule="evenodd" d="M133.8 53.4545C133.8 55.9135 131.802 57.9091 129.34 57.9091C126.878 57.9091 124.88 55.9135 124.88 53.4545C124.88 50.9956 126.878 49 129.34 49C131.802 49 133.8 50.9956 133.8 53.4545Z" fill="white"/>
<path fill-rule="evenodd" clip-rule="evenodd" d="M98.1199 80.1818C97.5089 80.1818 97.0049 79.6784 97.0049 79.0682V72.3863C97.0049 71.7761 97.5089 71.2727 98.1199 71.2727C98.7309 71.2727 99.2349 71.7761 99.2349 72.3863V79.0682C99.2349 79.6784 98.7309 80.1818 98.1199 80.1818Z" fill="#46A046"/>
<path fill-rule="evenodd" clip-rule="evenodd" d="M111.5 82.4091C110.889 82.4091 110.385 81.9057 110.385 81.2955V74.6136C110.385 74.0034 110.889 73.5 111.5 73.5C112.111 73.5 112.615 74.0034 112.615 74.6136V81.2955C112.615 81.9057 112.111 82.4091 111.5 82.4091Z" fill="#46A046"/>
<path fill-rule="evenodd" clip-rule="evenodd" d="M124.88 82.4091C124.269 82.4091 123.765 81.9057 123.765 81.2955V74.6136C123.765 74.0034 124.269 73.5 124.88 73.5C125.491 73.5 125.995 74.0034 125.995 74.6136V81.2955C125.995 81.9057 125.491 82.4091 124.88 82.4091Z" fill="#46A046"/>
<path fill-rule="evenodd" clip-rule="evenodd" d="M107.963 80.1818L103.503 75.7273H91.4301C90.6451 77.1528 90.6094 78.792 91.4301 80.1818H101.657L106.117 84.6364H131.57C131.57 84.6364 131.436 80.4135 131.57 80.1818H107.963Z" fill="#323232"/>
<path fill-rule="evenodd" clip-rule="evenodd" d="M93.66 77.9563C93.66 79.1858 92.6609 80.1836 91.43 80.1836C90.199 80.1836 89.2 79.1858 89.2 77.9563C89.2 76.7269 90.199 75.7291 91.43 75.7291C92.6609 75.7291 93.66 76.7269 93.66 77.9563Z" fill="#323232"/>
<path fill-rule="evenodd" clip-rule="evenodd" d="M133.8 82.4109C133.8 83.6403 132.801 84.6381 131.57 84.6381C130.339 84.6381 129.34 83.6403 129.34 82.4109C129.34 81.1814 130.339 80.1836 131.57 80.1836C132.801 80.1836 133.8 81.1814 133.8 82.4109Z" fill="#323232"/>
</g>
<defs>
<clipPath id="clip0_54_86">
<rect width="223" height="98" fill="white"/>
</clipPath>
</defs>
</svg>
